<?xml version="1.0" standalone="no"?>
<!DOCTYPE svg PUBLIC "-//W3C//DTD SVG 20010904//EN"
 "http://www.w3.org/TR/2001/REC-SVG-20010904/DTD/svg10.dtd">
<svg version="1.0" xmlns="http://www.w3.org/2000/svg"
 width="676.000000pt" height="236.000000pt" viewBox="0 0 676.000000 236.000000"
 preserveAspectRatio="xMidYMid meet">

<g transform="translate(0.000000,236.000000) scale(0.100000,-0.100000)"
fill="#126648" stroke="none">
<path d="M2145 2023 c-22 -3 -45 -9 -52 -15 -10 -8 -13 -57 -13 -189 l0 -179
224 0 223 0 7 -37 c3 -21 6 -320 6 -666 l0 -627 28 -11 c31 -12 380 -9 400 4
9 6 12 152 12 673 l0 664 206 0 c122 0 213 4 225 10 18 10 19 23 19 175 l0
165 -32 20 c-32 19 -51 20 -623 18 -324 -1 -608 -3 -630 -5z"/>
<path d="M4123 2006 c-60 -28 -113 -93 -113 -138 0 -20 -5 -28 -18 -28 -9 0
-38 -11 -64 -25 -26 -14 -54 -25 -63 -25 -8 0 -15 -5 -15 -12 0 -6 -3 -9 -6
-6 -3 3 -17 -5 -31 -18 -14 -13 -28 -22 -32 -21 -11 3 -51 -29 -44 -36 3 -4 0
-7 -8 -7 -8 0 -46 -33 -86 -72 -70 -73 -141 -181 -161 -248 -6 -19 -18 -53
-26 -75 -11 -28 -15 -80 -16 -178 0 -126 2 -145 29 -225 31 -92 53 -139 89
-189 12 -17 22 -35 22 -40 0 -18 95 -116 149 -152 107 -73 261 -141 317 -141
13 0 25 -4 29 -10 8 -13 35 -1 35 17 0 8 -5 11 -10 8 -18 -11 -142 25 -225 66
-106 53 -159 90 -163 116 -2 12 38 118 88 235 106 246 117 269 139 285 11 9
12 12 3 13 -7 0 -10 5 -7 10 4 6 23 10 43 9 20 -1 69 2 109 6 71 8 72 8 78
-17 4 -14 5 -166 3 -338 -2 -262 -5 -313 -18 -323 -8 -7 -22 -21 -30 -31 -14
-18 -14 -19 7 -8 12 7 25 17 28 22 12 20 73 11 89 -12 19 -27 12 -86 -12 -105
-26 -21 -71 -15 -97 12 -17 16 -25 19 -25 10 0 -17 34 -40 74 -49 34 -8 70 12
89 52 12 25 13 33 9 69 -1 6 -18 20 -37 32 l-35 20 0 334 c0 184 2 336 5 339
9 9 122 -11 179 -33 63 -23 82 -47 129 -154 14 -33 51 -118 82 -190 31 -71 62
-143 68 -158 11 -27 9 -31 -37 -73 -27 -25 -66 -53 -87 -62 -22 -9 -39 -20
-39 -24 0 -5 -6 -8 -12 -8 -7 0 -35 -11 -62 -25 -58 -29 -50 -33 14 -7 178 70
341 219 424 387 45 89 78 229 78 325 0 180 -86 394 -211 523 -79 84 -248 185
-334 201 -36 7 -47 21 -47 59 0 38 -38 87 -83 107 -73 31 -97 32 -154 6z m163
-70 c31 -31 34 -40 34 -91 0 -51 -3 -60 -32 -89 -37 -37 -106 -54 -150 -37
-48 18 -95 101 -84 146 3 13 23 43 45 65 36 38 41 40 95 40 53 0 61 -3 92 -34z
m209 -154 c183 -92 294 -206 373 -382 43 -96 52 -149 52 -295 0 -122 -3 -150
-25 -216 -41 -126 -115 -239 -148 -226 -10 4 -20 15 -24 24 -10 30 -133 326
-148 358 -8 17 -52 118 -98 225 -192 445 -183 417 -151 452 12 12 27 40 33 60
12 35 13 36 49 31 20 -4 60 -18 87 -31z m-468 -13 c63 -93 61 -77 15 -180 -22
-52 -66 -155 -98 -229 -64 -154 -242 -564 -285 -658 -16 -35 -34 -62 -41 -60
-18 6 -104 175 -127 248 -31 101 -43 209 -31 292 27 191 84 309 211 439 69 71
121 109 214 158 83 43 108 41 142 -10z m255 -274 c64 -140 143 -334 137 -339
-2 -2 -49 6 -104 18 l-100 21 -6 205 c-3 113 -7 210 -8 215 -2 6 -3 14 -2 20
2 21 30 -26 83 -140z m-114 -87 l-3 -213 -85 -17 c-136 -27 -134 -29 -96 54
42 92 136 307 136 313 0 3 7 21 14 40 31 73 36 42 34 -177z"/>
<path d="M187 2003 c-4 -3 -7 -75 -7 -160 l0 -153 456 0 c392 0 455 -2 451
-14 -7 -19 -148 -196 -282 -356 -58 -69 -127 -152 -153 -185 -26 -32 -76 -93
-112 -135 -152 -175 -380 -459 -380 -472 0 -35 186 30 431 152 239 119 282
148 345 227 27 34 96 119 154 189 58 69 141 170 185 224 160 196 293 356 329
393 l36 38 0 130 0 129 -723 0 c-398 0 -727 -3 -730 -7z"/>
<path d="M5143 2003 c-79 -2 -143 -6 -143 -9 0 -3 117 -183 260 -400 143 -217
260 -402 260 -412 0 -9 -51 -93 -113 -187 -316 -474 -401 -602 -419 -628 -11
-16 -18 -30 -16 -32 5 -4 251 -9 370 -7 l107 2 158 239 c87 132 163 239 169
238 6 -1 82 -108 169 -237 136 -204 161 -236 189 -244 18 -5 125 -5 239 -1
l208 7 -32 57 c-17 31 -50 83 -74 116 -23 33 -122 179 -220 325 -98 146 -191
283 -207 304 -16 22 -27 45 -26 51 4 15 497 756 521 782 11 13 17 26 13 30 -4
4 -111 6 -239 5 l-232 -3 -20 -26 c-42 -55 -196 -281 -236 -345 -23 -38 -45
-68 -50 -68 -5 0 -75 99 -155 220 l-147 220 -52 0 c-29 0 -72 1 -96 3 -24 2
-108 2 -186 0z"/>
<path d="M1663 1403 c-68 -2 -123 -7 -123 -11 0 -4 16 -29 35 -56 19 -27 35
-57 35 -66 0 -11 -77 -68 -217 -160 -594 -391 -1060 -630 -1227 -630 -48 0
-86 22 -86 51 0 28 -27 23 -34 -6 -9 -35 12 -74 54 -103 33 -22 41 -24 124
-18 254 19 642 168 1308 502 135 68 249 124 251 124 3 0 20 -25 37 -55 17 -30
35 -55 40 -55 15 0 27 26 99 210 40 102 81 203 92 225 10 22 19 43 19 48 0 7
-132 7 -407 0z"/>
<path d="M970 591 c-30 -10 -104 -40 -165 -65 -181 -77 -429 -148 -575 -164
-64 -7 -65 -7 -68 -40 l-3 -32 758 2 758 3 3 158 3 157 -328 -1 c-290 0 -334
-2 -383 -18z"/>
<path d="M4305 380 c3 -5 22 -10 41 -10 21 0 33 4 29 10 -3 6 -22 10 -41 10
-21 0 -33 -4 -29 -10z"/>
</g>
</svg>
