<svg xmlns="http://www.w3.org/2000/svg" width="33.73" height="39.933" viewBox="0 0 33.73 39.933">
  <g id="form_1_" data-name="form (1)" transform="translate(-3.33 -1)">
    <path id="Path_7191" data-name="Path 7191" d="M3.33,7.629v23.84A6.647,6.647,0,0,0,9.959,38.1H18.93a9.339,9.339,0,0,1,.785-2.662,10.159,10.159,0,0,1,5.431-5.218,6.516,6.516,0,0,1-2.809-5.378,6.6,6.6,0,0,1,6.589-6.589,6.28,6.28,0,0,1,1.877.28,6.529,6.529,0,0,1,2.662,1.544V7.629A6.629,6.629,0,0,0,26.838,1H9.959A6.638,6.638,0,0,0,3.33,7.629ZM11.37,7.6H25.426a1.331,1.331,0,0,1,0,2.662H11.37a1.331,1.331,0,1,1,0-2.662Zm0,7.081H25.426a1.331,1.331,0,0,1,0,2.662H11.37a1.331,1.331,0,1,1,0-2.662Zm0,7.068h6.389a1.331,1.331,0,0,1,0,2.662H11.37a1.331,1.331,0,1,1,0-2.662Z" transform="translate(0 0)" fill="#e25737"/>
    <circle id="Ellipse_45" data-name="Ellipse 45" cx="4.592" cy="4.592" r="4.592" transform="translate(24.335 20.248)" fill="#e25737"/>
    <path id="Path_7192" data-name="Path 7192" d="M17.791,33.352h13.59a1.335,1.335,0,0,0,1.331-1.331,8.126,8.126,0,1,0-16.253,0,1.335,1.335,0,0,0,1.331,1.331Z" transform="translate(4.347 7.58)" fill="#e25737"/>
  </g>
</svg>
