<svg id="office" xmlns="http://www.w3.org/2000/svg" width="37.627" height="37.627" viewBox="0 0 37.627 37.627">
  <g id="Group_6422" data-name="Group 6422">
    <path id="Path_7188" data-name="Path 7188" d="M31.983,33.864V0H5.644V33.864H0v3.763H37.627V33.864ZM16.932,3.763h3.763V7.525H16.932Zm0,7.525h3.763v3.763H16.932Zm0,7.525h3.763v3.763H16.932Zm-3.763,3.763H9.407V18.813h3.763Zm0-7.525H9.407V11.288h3.763Zm0-7.525H9.407V3.763h3.763Zm9.407,26.339H15.051V26.339h7.525ZM28.22,22.576H24.457V18.813H28.22Zm0-7.525H24.457V11.288H28.22Zm0-7.525H24.457V3.763H28.22Z" fill="#df5c3e"/>
  </g>
</svg>
