<svg id="hired" xmlns="http://www.w3.org/2000/svg" width="29.094" height="29.094" viewBox="0 0 29.094 29.094">
  <g id="Hired-2" data-name="Hired">
    <g id="Group_6379" data-name="Group 6379" transform="translate(20.333 8.231)">
      <path id="Path_7167" data-name="Path 7167" d="M363.853,153.767l-6.032-6.007,2.73-2.9,6.031,6.031Z" transform="translate(-357.821 -144.858)" fill="#31ab3f"/>
    </g>
    <g id="Group_6380" data-name="Group 6380" transform="translate(0 8.231)">
      <path id="Path_7168" data-name="Path 7168" d="M2.729,153.766,0,150.889l6.032-6.032,2.73,2.9Z" transform="translate(0 -144.857)" fill="#31ab3f"/>
    </g>
    <path id="Path_7169" data-name="Path 7169" d="M156.967,0a5.967,5.967,0,1,0,5.967,5.967A5.974,5.974,0,0,0,156.967,0ZM156.2,8.706,153.788,6.3l1.205-1.205L156.2,6.3l2.485-2.484,1.205,1.205Z" transform="translate(-142.42)" fill="#31ab3f"/>
  </g>
  <path id="Path_7170" data-name="Path 7170" d="M198.994,221.92l-4.83-4.809-.75.75a3.9,3.9,0,0,0-3.494,1.09l-4.336,4.336a3.326,3.326,0,0,0,4.782.04l1.615-1.638,1.214,1.2-2.395,2.428,3.612,3.612,2.725-2.747a3.893,3.893,0,0,0,1.1-3.5Z" transform="translate(-175.039 -204.774)" fill="#31ab3f"/>
  <path id="Path_7171" data-name="Path 7171" d="M99.257,225.926a5.022,5.022,0,0,1-4.565-1.376l-1.2-1.205,1.148-1.263,3.848-3.848a3.9,3.9,0,0,0-2.47-.373l-.75-.75-4.83,4.809.76.76a3.887,3.887,0,0,0,1.09,3.493l7.558,7.694,3.62-3.738Z" transform="translate(-85.295 -204.774)" fill="#31ab3f"/>
</svg>
