<svg id="arrows" xmlns="http://www.w3.org/2000/svg" width="26.865" height="24.082" viewBox="0 0 26.865 24.082">
  <path id="Path_7164" data-name="Path 7164" d="M89.822,13.011a.787.787,0,0,0-1.111.069l-.013.014v-.552A12.047,12.047,0,0,0,71.072,1.871a12.143,12.143,0,0,0-4.2,3.648.787.787,0,0,0,1.278.919,10.469,10.469,0,0,1,18.974,6.1v.552l-.013-.014a.787.787,0,1,0-1.18,1.042l1.39,1.573a.787.787,0,0,0,1.18,0l1.39-1.573a.787.787,0,0,0-.069-1.111Zm0,0" transform="translate(-63.224 -0.5)" fill="#fb5951"/>
  <path id="Path_7165" data-name="Path 7165" d="M23.035,174.149a.787.787,0,0,0-1.1.179,10.469,10.469,0,0,1-18.974-6.1v-.552l.013.015a.787.787,0,0,0,1.18-1.042l-1.39-1.573a.787.787,0,0,0-1.18,0L.2,166.644a.787.787,0,1,0,1.18,1.042l.013-.015v.552A12.047,12.047,0,0,0,19.015,178.9a12.146,12.146,0,0,0,4.2-3.648.787.787,0,0,0-.179-1.1Zm0,0" transform="translate(0.001 -156.184)" fill="#fb5951"/>
  <path id="Path_7166" data-name="Path 7166" d="M107.562,88.053a.786.786,0,0,0,.079.6l1.574,2.727a.787.787,0,0,0,1.075.288L111.447,91a6.341,6.341,0,0,0,1.517.878v1.334a.787.787,0,0,0,.787.787H116.9a.787.787,0,0,0,.787-.787V91.874A6.341,6.341,0,0,0,119.2,91l1.157.668a.787.787,0,0,0,1.075-.288l1.574-2.727a.787.787,0,0,0-.288-1.075l-1.16-.67a6.335,6.335,0,0,0,0-1.748l1.161-.67a.787.787,0,0,0,.288-1.075l-1.574-2.726a.787.787,0,0,0-1.075-.288l-1.165.673a6.345,6.345,0,0,0-1.509-.872V78.854a.787.787,0,0,0-.787-.787h-3.148a.787.787,0,0,0-.787.787V80.2a6.343,6.343,0,0,0-1.509.872L110.29,80.4a.787.787,0,0,0-1.075.288l-1.574,2.726a.787.787,0,0,0,.288,1.075l1.161.67a6.334,6.334,0,0,0,0,1.748l-1.16.67A.787.787,0,0,0,107.562,88.053Zm7.763-4.378a2.361,2.361,0,1,1-2.361,2.361A2.361,2.361,0,0,1,115.325,83.675Zm0,0" transform="translate(-101.892 -73.997)" fill="#fb5951"/>
</svg>
