<svg xmlns="http://www.w3.org/2000/svg" width="25.063" height="25.063" viewBox="0 0 25.063 25.063">
  <path id="XMLID_419_" d="M13.532,1A12.532,12.532,0,1,0,26.063,13.532,12.548,12.548,0,0,0,13.532,1ZM19.68,16.383a1.168,1.168,0,0,1,0,1.66l-1.629,1.629a1.2,1.2,0,0,1-1.66,0l-2.859-2.851-2.859,2.851a1.149,1.149,0,0,1-.83.345,1.136,1.136,0,0,1-.83-.345L7.383,18.043a1.174,1.174,0,0,1-.345-.83,1.188,1.188,0,0,1,.345-.83l2.851-2.859L7.383,10.665a1.168,1.168,0,0,1,0-1.66L9.012,7.376a1.212,1.212,0,0,1,1.66,0l2.859,2.851,3.015-3.015a1.222,1.222,0,0,1,1.668,0L19.845,8.84a1.168,1.168,0,0,1,0,1.66l-3.015,3.023Z" transform="translate(-1 -1)" fill="#361b32"/>
</svg>
