<svg xmlns="http://www.w3.org/2000/svg" width="41.667" height="41.667" viewBox="0 0 41.667 41.667">
  <g id="_x30_3" transform="translate(-2 -2)">
    <path id="Path_7181" data-name="Path 7181" d="M32.9,11.464H21V7H34.393V9.976A1.488,1.488,0,0,1,32.9,11.464Z" transform="translate(9.274 2.441)" fill="#e25737"/>
    <path id="Path_7182" data-name="Path 7182" d="M34.393,7.464H21V3H32.9a1.488,1.488,0,0,1,1.488,1.488Z" transform="translate(9.274 0.488)" fill="#e25737"/>
    <path id="Path_7183" data-name="Path 7183" d="M18.167,29.91l1.045-.979L22.046,26.1l1.433-4.3a.742.742,0,0,1,.18-.291l2.6-2.6-1.138-2.275L23.441,15.8v1.772a2.232,2.232,0,0,1-4.464,0v-3.26l-1.792.9L16,16.389v3.848L18.758,23a.746.746,0,0,1,.2.706l-1.391,5.561Z" transform="translate(6.834 6.008)" fill="#e25737"/>
    <path id="Path_7184" data-name="Path 7184" d="M11.954,12.5l1,4,2.077-4.153a.745.745,0,0,1,.333-.333l2.4-1.2L16.534,7.129l-1.1-1.1A17.7,17.7,0,0,0,9,7.628v3.1l2.565,1.282a.744.744,0,0,1,.389.485Z" transform="translate(3.417 1.969)" fill="#e25737"/>
    <path id="Path_7185" data-name="Path 7185" d="M10.763,17.929l-2.4-1.2a.745.745,0,0,1-.333-.333L7,14.344,4.758,16.59a.741.741,0,0,1-.291.179l-2.311.77A17.466,17.466,0,0,0,5.723,30.656l.958-.319,1.35-2.7a.745.745,0,0,1,.333-.333l2.4-1.2L9.479,22.252a.736.736,0,0,1,0-.471Z" transform="translate(0 6.025)" fill="#e25737"/>
    <path id="Path_7186" data-name="Path 7186" d="M30.128,13.422v4.748l2.565,1.282a.748.748,0,0,1,.333.333l1.488,2.976a.743.743,0,0,1-.14.859l-2.851,2.852-1.433,4.3a.742.742,0,0,1-.18.291l-4.584,4.482a.746.746,0,0,1-.509.2h-.026a.746.746,0,0,1-.519-.236l-1.386-1.488a.741.741,0,0,1-.177-.687L24.1,27.787l-2.678-2.678a.744.744,0,0,1-.218-.526V20.119a.744.744,0,0,1,.218-.526L22.906,18.1a.745.745,0,0,1,.193-.14l2.565-1.282V7.023a17.71,17.71,0,0,0-4.844-.986l.162.162a.741.741,0,0,1,.179.291l1.488,4.464a.743.743,0,0,1-.373.9l-2.755,1.377-2.865,5.731a.745.745,0,0,1-.666.411.774.774,0,0,1-.081,0,.744.744,0,0,1-.64-.559l-1.405-5.62-2.67-1.335a.744.744,0,0,1-.411-.666V8.4A17.9,17.9,0,0,0,2.3,19.93l1.386-.462,2.852-2.852a.726.726,0,0,1,.645-.209.745.745,0,0,1,.546.4l1.377,2.755,2.755,1.377a.743.743,0,0,1,.373.9l-1.41,4.229,1.41,4.229a.743.743,0,0,1-.373.9L9.105,32.578,7.728,35.333a.744.744,0,0,1-.43.373l-.686.229A17.829,17.829,0,0,0,34.186,13.422Z" transform="translate(0.146 1.971)" fill="#e25737"/>
    <path id="Path_7187" data-name="Path 7187" d="M19.744,24.322A.744.744,0,0,1,19,23.578V2.744a.744.744,0,1,1,1.488,0V23.578A.744.744,0,0,1,19.744,24.322Z" transform="translate(8.298)" fill="#e25737"/>
  </g>
</svg>
