<svg xmlns="http://www.w3.org/2000/svg" width="37.021" height="38.792" viewBox="0 0 37.021 38.792">
  <g id="profile" transform="translate(-11.69)">
    <path id="Path_7193" data-name="Path 7193" d="M33.544,34.667a15.817,15.817,0,0,1-2.079-7.831V24.8a3.4,3.4,0,0,1,2.276-3.216,3.47,3.47,0,0,0,1.625-1.18,3.385,3.385,0,0,1,2.683-1.311h3.175V1.136A1.136,1.136,0,0,0,40.088,0H21.614V8.788a1.136,1.136,0,0,1-1.136,1.136H11.69V37.641a1.136,1.136,0,0,0,1.136,1.136h24.1A15.807,15.807,0,0,1,33.544,34.667Zm2.984-18.925a1.136,1.136,0,0,1-1.136,1.136h-7.86A1.136,1.136,0,0,1,26.4,15.742v-.9A5.062,5.062,0,0,1,28.544,10.7a3.787,3.787,0,1,1,5.837,0,5.062,5.062,0,0,1,2.148,4.137Zm-19.1,5.68h7.886a1.136,1.136,0,1,1,0,2.272H17.433a1.136,1.136,0,0,1,0-2.272Zm0,4.514h7.886a1.136,1.136,0,1,1,0,2.272H17.433a1.136,1.136,0,0,1,0-2.272Zm0,4.545h7.886a1.136,1.136,0,0,1,0,2.272H17.433a1.136,1.136,0,0,1,0-2.272Z" transform="translate(0 0)" fill="#e25737"/>
    <path id="Path_7194" data-name="Path 7194" d="M19.342,6.515V0L11.69,7.652h6.516A1.136,1.136,0,0,0,19.342,6.515Z" transform="translate(0)" fill="#e25737"/>
    <path id="Path_7195" data-name="Path 7195" d="M317.77,287.56v-2.036a1.127,1.127,0,0,0-.749-1.069,5.736,5.736,0,0,1-2.687-1.949,1.1,1.1,0,0,0-.876-.417h-6.35a1.1,1.1,0,0,0-.876.417,5.736,5.736,0,0,1-2.687,1.949,1.127,1.127,0,0,0-.749,1.069v2.036a13.573,13.573,0,0,0,6.65,11.644l.266.157a1.123,1.123,0,0,0,1.141,0l.266-.157A13.573,13.573,0,0,0,317.77,287.56Zm-7.306,5.605a1.136,1.136,0,0,1-1.607,0l-1.951-1.951a1.136,1.136,0,1,1,1.607-1.607l1.148,1.148,3.151-3.151a1.136,1.136,0,0,1,1.607,1.607Z" transform="translate(-269.059 -260.724)" fill="#e25737"/>
    <path id="Path_7196" data-name="Path 7196" d="M239.1,159.32c-.1.009-.211.014-.318.014s-.213-.006-.318-.014A2.8,2.8,0,0,0,236,161.86h5.568A2.8,2.8,0,0,0,239.1,159.32Z" transform="translate(-207.318 -147.254)" fill="#e25737"/>
    <circle id="Ellipse_46" data-name="Ellipse 46" cx="1.515" cy="1.515" r="1.515" transform="translate(29.948 6.779)" fill="#e25737"/>
  </g>
</svg>
