<svg xmlns="http://www.w3.org/2000/svg" version="1.1" xmlns:xlink="http://www.w3.org/1999/xlink" width="512" height="512" x="0" y="0" viewBox="0 0 512.82 512.82" style="enable-background:new 0 0 512 512" xml:space="preserve" class=""><g><path fill="#75e2f8" d="m307 71.66-50.58 44.13-.01-.01v-39.8l30.87-26.93z" opacity="1" data-original="#75e2f8" class=""></path><g fill="#a8ebfa"><path d="M256.41 75.98v39.8l-50.65-44.12 19.7-22.62 30.94 26.95zM72.88 184.44l-5.401-29.51 40.362-7.386-1.812-40.94 29.97-1.326 2.969 67.068zM78.205 358.642l-26.439-14.175 19.39-36.163-33.137-24.107 17.648-24.26 54.287 39.494zM190.154 474.926l-16.183-37.707-39.509 10.876-7.963-28.923 64.725-17.819 26.498 61.741z" fill="#a8ebfa" opacity="1" data-original="#a8ebfa" class=""></path></g><path fill="#75e2f8" d="m322.734 474.884-27.578-11.809 26.425-61.715 64.791 17.777-7.938 28.932-39.57-10.857zM434.637 358.586l-31.775-59.138 54.296-39.571 17.67 24.244-33.159 24.167 19.395 36.099zM439.909 184.387l-66.046-12.028 2.913-67.123 29.973 1.301-1.78 40.994 40.315 7.343z" opacity="1" data-original="#75e2f8" class=""></path><path fill="#a8ebfa" d="m506.14 338.4-222.7-50.83 99.11 205.81-27.03 13.01-99.11-205.81V6.43h15v228.44L450 92.44l18.71 23.46-178.6 142.42 222.71 50.83z" opacity="1" data-original="#a8ebfa" class=""></path><path fill="#cff3fc" d="M256.41 6.43v294.15L157.3 506.39l-27.03-13.01 99.11-205.81L6.68 338.4 0 309.15l222.7-50.83L44.11 115.9l18.71-23.46 178.59 142.43V6.43z" opacity="1" data-original="#cff3fc" class=""></path><path fill="#a8ebfa" d="m322.371 337.719 18.72-23.46 59.091 47.152-18.72 23.46zM346.833 229.87l73.673-16.851 6.69 29.25-73.673 16.85zM284.594 172.977l32.795-68.082 27.03 13.02-32.794 68.082z" opacity="1" data-original="#a8ebfa" class=""></path><path fill="#cff3fc" d="m168.459 117.896 27.03-13.02 32.794 68.082-27.03 13.02zM85.842 242.542l6.69-29.25 73.674 16.85-6.69 29.25zM113.083 361.278l59.09-47.151 18.72 23.46-59.09 47.15zM256.41 362.05l10 37.78-10 37.78h-15v-75.56z" opacity="1" data-original="#cff3fc" class=""></path><path fill="#75e2f8" d="M256.41 362.05h15v75.56h-15z" opacity="1" data-original="#75e2f8" class=""></path><path fill="#75e2f8" d="m256.41 152.52 10-21.329-10-25.831-48.89 59.3-75.85 1.88 15.04 74.31-47.79 61.11 69.39 34.24 17.58 76.25 70.52-33.77 11-11.884-11-21.376-49.7 23.8-12.37-53.63-49.07-24.21 33.58-42.94-10.68-52.8 53.79-1.33z" opacity="1" data-original="#75e2f8" class=""></path><path fill="#00cef5" d="m413.71 301.92-69.19 34.26-17.59 76.27-70.52-33.77v-33.26l49.7 23.8 12.36-53.62 48.97-24.25-33.48-42.93 10.76-52.83-53.85-1.27-34.46-41.8v-47.16l48.88 59.29 75.98 1.79-15.15 74.43z" opacity="1" data-original="#00cef5" class=""></path></g></svg>
